<svg width="21" height="21" viewBox="0 0 21 21" fill="none" xmlns="http://www.w3.org/2000/svg">
<path d="M10.9757 0.0756836C8.9979 0.0756836 7.0645 0.662173 5.42001 1.76099C3.77552 2.8598 2.49379 4.42159 1.73692 6.24885C0.980041 8.07611 0.782008 10.0868 1.16786 12.0266C1.55371 13.9664 2.50612 15.7482 3.90464 17.1468C5.30317 18.5453 7.085 19.4977 9.02481 19.8835C10.9646 20.2694 12.9753 20.0714 14.8025 19.3145C16.6298 18.5576 18.1916 17.2759 19.2904 15.6314C20.3892 13.9869 20.9757 12.0535 20.9757 10.0757C20.9757 8.76246 20.7171 7.4621 20.2145 6.24885C19.712 5.03559 18.9754 3.9332 18.0468 3.00462C17.1182 2.07603 16.0158 1.33944 14.8025 0.836888C13.5893 0.334341 12.2889 0.0756836 10.9757 0.0756836ZM10.9757 18.0757C9.39346 18.0757 7.84674 17.6065 6.53115 16.7274C5.21556 15.8484 4.19018 14.599 3.58468 13.1372C2.97918 11.6753 2.82075 10.0668 3.12943 8.51496C3.43811 6.96311 4.20004 5.53765 5.31886 4.41883C6.43768 3.30001 7.86314 2.53808 9.41499 2.2294C10.9668 1.92072 12.5754 2.07915 14.0372 2.68465C15.499 3.29015 16.7484 4.31553 17.6275 5.63112C18.5065 6.94671 18.9757 8.49343 18.9757 10.0757C18.9757 12.1974 18.1329 14.2322 16.6326 15.7325C15.1323 17.2328 13.0974 18.0757 10.9757 18.0757Z" fill="#181725"/>
<path d="M10.9757 15.0757C11.528 15.0757 11.9757 14.628 11.9757 14.0757C11.9757 13.5234 11.528 13.0757 10.9757 13.0757C10.4234 13.0757 9.97571 13.5234 9.97571 14.0757C9.97571 14.628 10.4234 15.0757 10.9757 15.0757Z" fill="#181725"/>
<path d="M10.9757 5.07568C10.7105 5.07568 10.4561 5.18104 10.2686 5.36858C10.0811 5.55611 9.97571 5.81047 9.97571 6.07568V11.0757C9.97571 11.3409 10.0811 11.5953 10.2686 11.7828C10.4561 11.9703 10.7105 12.0757 10.9757 12.0757C11.2409 12.0757 11.4953 11.9703 11.6828 11.7828C11.8704 11.5953 11.9757 11.3409 11.9757 11.0757V6.07568C11.9757 5.81047 11.8704 5.55611 11.6828 5.36858C11.4953 5.18104 11.2409 5.07568 10.9757 5.07568Z" fill="#181725"/>
</svg>
