<svg width="19" height="21" viewBox="0 0 19 21" fill="none" xmlns="http://www.w3.org/2000/svg">
<path d="M18.4952 13.3544L16.6953 11.5445V7.08474C16.7193 5.42866 16.1432 3.81985 15.0735 2.55535C14.0039 1.29085 12.5128 0.456074 10.8757 0.205154C9.92554 0.0800291 8.95965 0.158972 8.04245 0.436716C7.12525 0.71446 6.27782 1.18462 5.55672 1.81582C4.83562 2.44702 4.25742 3.22475 3.8607 4.09711C3.46399 4.96948 3.25788 5.91642 3.25613 6.87475V11.5445L1.45624 13.3544C1.23016 13.5842 1.07685 13.8756 1.01547 14.1921C0.954088 14.5086 0.987366 14.8362 1.11114 15.1339C1.23491 15.4316 1.44369 15.6862 1.71138 15.8659C1.97906 16.0456 2.29377 16.1424 2.61617 16.1442H5.97597V16.4842C6.02268 17.4993 6.46989 18.4545 7.21962 19.1405C7.96935 19.8265 8.96044 20.1874 9.97573 20.144C10.991 20.1874 11.9821 19.8265 12.7318 19.1405C13.4816 18.4545 13.9288 17.4993 13.9755 16.4842V16.1442H17.3353C17.6577 16.1424 17.9724 16.0456 18.2401 15.8659C18.5078 15.6862 18.7165 15.4316 18.8403 15.1339C18.9641 14.8362 18.9974 14.5086 18.936 14.1921C18.8746 13.8756 18.7213 13.5842 18.4952 13.3544ZM11.9756 16.4842C11.9202 16.9651 11.6813 17.4062 11.3087 17.7154C10.9362 18.0246 10.4587 18.1782 9.97573 18.1441C9.49277 18.1782 9.01528 18.0246 8.64274 17.7154C8.27019 17.4062 8.0313 16.9651 7.97585 16.4842V16.1442H11.9756V16.4842ZM3.48612 14.1443L4.66605 12.9644C4.8532 12.7783 5.00169 12.5571 5.10294 12.3134C5.2042 12.0697 5.25622 11.8084 5.25601 11.5445V6.87475C5.25656 6.20019 5.40139 5.53356 5.68078 4.91958C5.96017 4.3056 6.36767 3.75849 6.87591 3.31497C7.3773 2.86068 7.97142 2.52076 8.61715 2.31876C9.26288 2.11675 9.94479 2.05748 10.6157 2.14504C11.7721 2.3328 12.8218 2.932 13.5714 3.83231C14.3211 4.73263 14.7202 5.87345 14.6954 7.04474V11.5445C14.6939 11.8077 14.7444 12.0686 14.8439 12.3122C14.9434 12.5559 15.0901 12.7775 15.2754 12.9644L16.4653 14.1443H3.48612Z" fill="#181725"/>
</svg>
