<svg width="21" height="14" viewBox="0 0 21 14" fill="none" xmlns="http://www.w3.org/2000/svg">
<path d="M18.9757 4.26597V2.3449H2.97571V4.26597H18.9757ZM18.9757 6.18705H2.97571V11.9503H18.9757V6.18705ZM2.97571 0.423828H18.9757C19.5061 0.423828 20.0148 0.626226 20.3899 0.986497C20.765 1.34677 20.9757 1.8354 20.9757 2.3449V11.9503C20.9757 12.4598 20.765 12.9484 20.3899 13.3087C20.0148 13.6689 19.5061 13.8713 18.9757 13.8713H2.97571C2.44528 13.8713 1.93657 13.6689 1.56149 13.3087C1.18642 12.9484 0.975708 12.4598 0.975708 11.9503V2.3449C0.975708 1.8354 1.18642 1.34677 1.56149 0.986497C1.93657 0.626226 2.44528 0.423828 2.97571 0.423828ZM4.97571 8.10812H5.97571C6.24092 8.10812 6.49528 8.20932 6.68281 8.38945C6.87035 8.56959 6.97571 8.81391 6.97571 9.06866C6.97571 9.32341 6.87035 9.56772 6.68281 9.74786C6.49528 9.92799 6.24092 10.0292 5.97571 10.0292H4.97571C4.71049 10.0292 4.45614 9.92799 4.2686 9.74786C4.08106 9.56772 3.97571 9.32341 3.97571 9.06866C3.97571 8.81391 4.08106 8.56959 4.2686 8.38945C4.45614 8.20932 4.71049 8.10812 4.97571 8.10812ZM9.97571 8.10812H14.9757C15.2409 8.10812 15.4953 8.20932 15.6828 8.38945C15.8704 8.56959 15.9757 8.81391 15.9757 9.06866C15.9757 9.32341 15.8704 9.56772 15.6828 9.74786C15.4953 9.92799 15.2409 10.0292 14.9757 10.0292H9.97571C9.71049 10.0292 9.45614 9.92799 9.2686 9.74786C9.08107 9.56772 8.97571 9.32341 8.97571 9.06866C8.97571 8.81391 9.08107 8.56959 9.2686 8.38945C9.45614 8.20932 9.71049 8.10812 9.97571 8.10812Z" fill="#181725"/>
</svg>
