<svg width="21" height="21" viewBox="0 0 21 21" fill="none" xmlns="http://www.w3.org/2000/svg">
<path d="M10.9757 0.854004C8.9979 0.854004 7.0645 1.44049 5.42001 2.53931C3.77552 3.63812 2.49379 5.19991 1.73692 7.02717C0.980041 8.85443 0.782008 10.8651 1.16786 12.8049C1.55371 14.7447 2.50612 16.5265 3.90464 17.9251C5.30317 19.3236 7.085 20.276 9.02481 20.6619C10.9646 21.0477 12.9753 20.8497 14.8025 20.0928C16.6298 19.3359 18.1916 18.0542 19.2904 16.4097C20.3892 14.7652 20.9757 12.8318 20.9757 10.854C20.9757 9.54078 20.7171 8.24043 20.2145 7.02717C19.712 5.81391 18.9754 4.71152 18.0468 3.78294C17.1182 2.85435 16.0158 2.11776 14.8025 1.61521C13.5893 1.11266 12.2889 0.854004 10.9757 0.854004ZM10.9757 18.854C9.39346 18.854 7.84674 18.3848 6.53115 17.5058C5.21556 16.6267 4.19018 15.3773 3.58468 13.9155C2.97918 12.4537 2.82075 10.8451 3.12943 9.29328C3.43811 7.74143 4.20004 6.31597 5.31886 5.19715C6.43768 4.07833 7.86314 3.3164 9.41499 3.00772C10.9668 2.69904 12.5754 2.85747 14.0372 3.46297C15.499 4.06847 16.7484 5.09385 17.6275 6.40944C18.5065 7.72504 18.9757 9.27175 18.9757 10.854C18.9757 12.9757 18.1329 15.0106 16.6326 16.5109C15.1323 18.0112 13.0974 18.854 10.9757 18.854Z" fill="#181725"/>
<path d="M11.1932 4.85407C10.265 4.85407 9.37474 5.22282 8.71836 5.8792C8.06199 6.53557 7.69324 7.42581 7.69324 8.35407C7.69324 8.61929 7.79859 8.87364 7.98613 9.06118C8.17367 9.24871 8.42802 9.35407 8.69324 9.35407C8.95845 9.35407 9.21281 9.24871 9.40034 9.06118C9.58788 8.87364 9.69324 8.61929 9.69324 8.35407C9.69324 8.0574 9.78121 7.76739 9.94603 7.52072C10.1109 7.27404 10.3451 7.08178 10.6192 6.96825C10.8933 6.85472 11.1949 6.82502 11.4859 6.88289C11.7768 6.94077 12.0441 7.08363 12.2539 7.29341C12.4637 7.50319 12.6065 7.77046 12.6644 8.06144C12.7223 8.35241 12.6926 8.65401 12.5791 8.9281C12.4655 9.20219 12.2733 9.43645 12.0266 9.60128C11.7799 9.7661 11.4899 9.85407 11.1932 9.85407C10.928 9.85407 10.6737 9.95943 10.4861 10.147C10.2986 10.3345 10.1932 10.5889 10.1932 10.8541V12.8541C10.1932 13.1193 10.2986 13.3736 10.4861 13.5612C10.6737 13.7487 10.928 13.8541 11.1932 13.8541C11.4585 13.8541 11.7128 13.7487 11.9003 13.5612C12.0879 13.3736 12.1932 13.1193 12.1932 12.8541V11.6941C13.0013 11.4581 13.6969 10.9379 14.1517 10.2295C14.6065 9.52109 14.79 8.67214 14.6682 7.83914C14.5464 7.00613 14.1276 6.24523 13.489 5.69666C12.8504 5.1481 12.0351 4.84885 11.1932 4.85407Z" fill="#181725"/>
<path d="M11.1932 16.854C11.7455 16.854 12.1932 16.4063 12.1932 15.854C12.1932 15.3017 11.7455 14.854 11.1932 14.854C10.641 14.854 10.1932 15.3017 10.1932 15.854C10.1932 16.4063 10.641 16.854 11.1932 16.854Z" fill="#181725"/>
</svg>
