<svg width="108" height="120" viewBox="0 0 108 120" fill="none" xmlns="http://www.w3.org/2000/svg">
<path d="M95.4167 12.7498H89.5V0.916504H77.6667V12.7498H30.3333V0.916504H18.5V12.7498H12.5833C6.075 12.7498 0.75 18.0748 0.75 24.5832V107.417C0.75 113.925 6.075 119.25 12.5833 119.25H95.4167C101.925 119.25 107.25 113.925 107.25 107.417V24.5832C107.25 18.0748 101.925 12.7498 95.4167 12.7498ZM95.4167 107.417H12.5833V48.2498H95.4167V107.417ZM12.5833 36.4165V24.5832H95.4167V36.4165H12.5833ZM24.4167 60.0832H83.5833V71.9165H24.4167V60.0832ZM24.4167 83.7498H65.8333V95.5832H24.4167V83.7498Z" fill="#C7C7C7"/>
</svg>
