<svg width="21" height="16" viewBox="0 0 21 16" fill="none" xmlns="http://www.w3.org/2000/svg">
<path d="M2.97571 2.43087H2.87571V2.53087V13.2565V13.3565H2.97571H18.9757H19.0757V13.2565V2.53087V2.43087H18.9757H2.97571ZM2.97571 0.485742H18.9757C19.4773 0.485742 19.9598 0.69938 20.3168 1.08223C20.6739 1.46531 20.8757 1.98629 20.8757 2.53087V13.2565C20.8757 13.8011 20.6739 14.322 20.3168 14.7051C19.9598 15.088 19.4773 15.3016 18.9757 15.3016H2.97571C2.47415 15.3016 1.99158 15.088 1.63464 14.7051C1.27747 14.322 1.07571 13.8011 1.07571 13.2565V2.53087C1.07571 1.98629 1.27747 1.46531 1.63464 1.08223C1.99158 0.69938 2.47415 0.485742 2.97571 0.485742ZM11.9757 4.77599H16.9757C17.2121 4.77599 17.4403 4.87663 17.6097 5.05833C17.7793 5.24027 17.8757 5.48844 17.8757 5.74855C17.8757 6.00866 17.7793 6.25683 17.6097 6.43877C17.4403 6.62048 17.2121 6.72111 16.9757 6.72111H11.9757C11.7394 6.72111 11.5112 6.62048 11.3417 6.43877C11.1721 6.25683 11.0757 6.00866 11.0757 5.74855C11.0757 5.48844 11.1721 5.24027 11.3417 5.05833C11.5112 4.87663 11.7394 4.77599 11.9757 4.77599ZM11.9757 7.99367H16.9757C17.2121 7.99367 17.4403 8.09431 17.6097 8.27601C17.7793 8.45795 17.8757 8.70612 17.8757 8.96624C17.8757 9.22635 17.7793 9.47452 17.6097 9.65646C17.4403 9.83816 17.2121 9.9388 16.9757 9.9388H11.9757C11.7394 9.9388 11.5112 9.83816 11.3417 9.65646C11.1721 9.47452 11.0757 9.22635 11.0757 8.96624C11.0757 8.70612 11.1721 8.45795 11.3417 8.27601C11.5112 8.09431 11.7394 7.99367 11.9757 7.99367Z" fill="#181725" stroke="white" stroke-width="0.2"/>
<g clip-path="url(#clip0_4_1462)">
<path d="M7.72594 5.58146V6.14416C7.72594 6.44858 7.58835 6.73454 7.34987 6.93748C7.10221 7.14965 6.78118 7.26957 6.4418 7.26957C6.10242 7.26957 5.77221 7.14965 5.53372 6.93748C5.29524 6.73454 5.15765 6.44858 5.15765 6.14416V5.58146C5.15765 5.28627 5.29524 5.00031 5.53372 4.78814C5.77221 4.57597 6.10242 4.45605 6.4418 4.45605C6.78118 4.45605 7.10221 4.57597 7.34987 4.78814C7.58835 5.00031 7.72594 5.28627 7.72594 5.58146Z" fill="#181725"/>
<path d="M8.68908 8.90249V9.36372C8.68908 9.58511 8.57901 9.8065 8.40473 9.96332C8.22128 10.1201 7.97363 10.2124 7.72597 10.2124H5.15769C4.90086 10.2124 4.6532 10.1201 4.47893 9.96332C4.29548 9.8065 4.19458 9.58511 4.19458 9.36372V8.87481C4.19458 8.56118 4.30465 8.24754 4.50644 7.98925C4.70824 7.73096 4.99258 7.52802 5.32279 7.4081C5.36865 7.39887 5.40534 7.38965 5.45121 7.38965C5.49707 7.38965 5.53376 7.39887 5.57962 7.4081H7.22149C7.23983 7.4081 7.249 7.4081 7.25818 7.41732C7.25818 7.4081 7.26735 7.4081 7.26735 7.4081C7.41411 7.39887 7.50583 7.4081 7.51501 7.4081C7.86356 7.52802 8.15708 7.73096 8.36804 7.99847C8.56984 8.26599 8.68908 8.57963 8.68908 8.90249Z" fill="#181725"/>
</g>
<defs>
<clipPath id="clip0_4_1462">
<rect width="6" height="7.68429" fill="white" transform="translate(3.97571 4.45605)"/>
</clipPath>
</defs>
</svg>
