<svg width="13" height="20" viewBox="0 0 13 20" fill="none" xmlns="http://www.w3.org/2000/svg">
<path d="M11.2771 0H1.22498C0.900414 0.000318515 0.589221 0.123618 0.359601 0.342874C0.129982 0.56213 0.000667655 0.859457 0 1.16969V18.8272C0.0010009 19.1372 0.130462 19.4342 0.360045 19.6532C0.589628 19.8722 0.900632 19.9953 1.22498 19.9957H11.2771C11.6013 19.9957 11.9122 19.8726 12.1415 19.6534C12.3708 19.4343 12.4995 19.1371 12.4995 18.8272V1.16969C12.4992 0.859776 12.3704 0.562628 12.1412 0.343372C11.9121 0.124117 11.6013 0.000638177 11.2771 0ZM5.25566 1.27219H7.24767C7.28852 1.27562 7.32654 1.29356 7.35424 1.32247C7.38194 1.35137 7.3973 1.38915 7.3973 1.42835C7.3973 1.46755 7.38194 1.50532 7.35424 1.53423C7.32654 1.56313 7.28852 1.58107 7.24767 1.58451H5.25566C5.233 1.58641 5.21017 1.58379 5.18863 1.57681C5.16709 1.56983 5.1473 1.55864 5.13052 1.54395C5.11375 1.52926 5.10035 1.5114 5.09119 1.4915C5.08202 1.4716 5.07729 1.45009 5.07729 1.42835C5.07729 1.4066 5.08202 1.3851 5.09119 1.36519C5.10035 1.34529 5.11375 1.32743 5.13052 1.31275C5.1473 1.29806 5.16709 1.28687 5.18863 1.27989C5.21017 1.2729 5.233 1.27028 5.25566 1.27219ZM7.16314 18.908C7.16314 18.9438 7.14826 18.9781 7.12176 19.0035C7.09526 19.0288 7.05932 19.043 7.02185 19.043H5.48022C5.44275 19.043 5.40681 19.0288 5.38031 19.0035C5.35381 18.9781 5.33893 18.9438 5.33893 18.908V18.1845C5.33893 18.1486 5.35381 18.1143 5.38031 18.089C5.40681 18.0636 5.44275 18.0494 5.48022 18.0494H7.02185C7.0404 18.0494 7.05878 18.0529 7.07592 18.0597C7.09306 18.0665 7.10864 18.0764 7.12176 18.089C7.13488 18.1015 7.14529 18.1164 7.15239 18.1328C7.15949 18.1492 7.16314 18.1667 7.16314 18.1845V18.908ZM11.4625 17.0413C11.4625 17.0829 11.4453 17.1227 11.4145 17.1521C11.3838 17.1815 11.342 17.198 11.2985 17.198H1.20858C1.16508 17.198 1.12337 17.1815 1.09261 17.1521C1.06185 17.1227 1.04457 17.0829 1.04457 17.0413V2.53352C1.04457 2.51294 1.04882 2.49255 1.05706 2.47353C1.0653 2.45451 1.07738 2.43723 1.09261 2.42267C1.10784 2.40812 1.12592 2.39657 1.14581 2.38869C1.16571 2.38082 1.18704 2.37676 1.20858 2.37676H11.3011C11.3443 2.37708 11.3857 2.39374 11.4162 2.4231C11.4467 2.45246 11.4638 2.49216 11.4638 2.53352L11.4625 17.0413Z" fill="white"/>
<path d="M3.33325 10.3161C3.33325 9.50189 3.67165 8.72099 4.27401 8.14523C4.87636 7.56947 5.69333 7.24601 6.54519 7.24601H7.21129V6.84084C7.21115 6.80712 7.22128 6.77409 7.24045 6.74579C7.25962 6.71748 7.287 6.69513 7.31924 6.68144C7.35148 6.66776 7.38719 6.66335 7.42201 6.66874C7.45683 6.67413 7.48926 6.6891 7.51533 6.71181L8.72643 7.75368C8.74555 7.76997 8.76085 7.78994 8.77132 7.81228C8.7818 7.83462 8.78722 7.85883 8.78722 7.88331C8.78722 7.90779 8.7818 7.932 8.77132 7.95434C8.76085 7.97668 8.74555 7.99665 8.72643 8.01294L7.51533 9.05481C7.48926 9.07752 7.45683 9.09249 7.42201 9.09788C7.38719 9.10327 7.35148 9.09886 7.31924 9.08517C7.287 9.07149 7.25962 9.04913 7.24045 9.02083C7.22128 8.99252 7.21115 8.9595 7.21129 8.92578V8.52061H6.59186C5.96855 8.5206 5.35927 8.69756 4.84134 9.02904C4.3234 9.36052 3.92013 9.83158 3.6827 10.3825C3.6666 10.4195 3.63756 10.4501 3.60052 10.4691C3.56348 10.488 3.52073 10.494 3.47954 10.4862C3.43834 10.4784 3.40126 10.4572 3.37459 10.4262C3.34792 10.3952 3.33331 10.3563 3.33325 10.3161Z" fill="white"/>
<path d="M9.53877 8.94842C9.53877 9.35159 9.4557 9.75082 9.29428 10.1233C9.13287 10.4958 8.89628 10.8342 8.59802 11.1193C8.29977 11.4044 7.94568 11.6306 7.55599 11.7848C7.1663 11.9391 6.74864 12.0185 6.32684 12.0185H5.65947V12.4237C5.65939 12.4572 5.64918 12.49 5.63008 12.518C5.61097 12.5461 5.58378 12.5683 5.55178 12.5819C5.51979 12.5956 5.48435 12.6001 5.44973 12.5949C5.41512 12.5897 5.38281 12.5751 5.3567 12.5527L4.14434 11.5097C4.12525 11.4935 4.10996 11.4736 4.0995 11.4514C4.08903 11.4291 4.08362 11.405 4.08362 11.3806C4.08362 11.3563 4.08903 11.3321 4.0995 11.3099C4.10996 11.2877 4.12525 11.2678 4.14434 11.2516L5.3567 10.2097C5.38281 10.1874 5.41512 10.1728 5.44973 10.1676C5.48435 10.1624 5.51979 10.1669 5.55178 10.1806C5.58378 10.1942 5.61097 10.2164 5.63008 10.2445C5.64918 10.2725 5.65939 10.3053 5.65947 10.3388V10.744H6.28016C6.90223 10.7427 7.50993 10.5651 8.02641 10.2337C8.54289 9.9023 8.94496 9.43193 9.18175 8.88209C9.19732 8.84423 9.22631 8.81279 9.26365 8.79327C9.301 8.77375 9.34433 8.76738 9.38608 8.77527C9.42784 8.78317 9.46537 8.80483 9.49212 8.83647C9.51887 8.86812 9.53315 8.90774 9.53247 8.94842H9.53877Z" fill="white"/>
</svg>
