<svg width="21" height="23" viewBox="0 0 21 23" fill="none" xmlns="http://www.w3.org/2000/svg">
<path d="M4.97565 1.14746L1.97565 5.14746V19.1475C1.97565 19.6779 2.18636 20.1866 2.56143 20.5617C2.93651 20.9367 3.44521 21.1475 3.97565 21.1475H17.9756C18.5061 21.1475 19.0148 20.9367 19.3899 20.5617C19.7649 20.1866 19.9756 19.6779 19.9756 19.1475V5.14746L16.9756 1.14746H4.97565Z" stroke="#181725" stroke-width="2" stroke-linecap="round" stroke-linejoin="round"/>
<path d="M1.97565 5.14746H19.9756" stroke="#181725" stroke-width="2" stroke-linecap="round" stroke-linejoin="round"/>
<path d="M14.9756 9.14746C14.9756 10.2083 14.5542 11.2257 13.8041 11.9759C13.0539 12.726 12.0365 13.1475 10.9756 13.1475C9.91478 13.1475 8.89737 12.726 8.14722 11.9759C7.39707 11.2257 6.97565 10.2083 6.97565 9.14746" stroke="#181725" stroke-width="2" stroke-linecap="round" stroke-linejoin="round"/>
</svg>
