<svg width="20" height="23" viewBox="0 0 20 23" fill="none" xmlns="http://www.w3.org/2000/svg">
<path fill-rule="evenodd" clip-rule="evenodd" d="M1.57043 9.46259C1.58621 4.78077 5.36213 0.998304 10.0042 1.01421C14.6463 1.03012 18.3966 4.83837 18.3808 9.52019V9.61619C18.3237 12.6595 16.6389 15.4725 14.5733 17.671C13.392 18.9082 12.0728 20.0035 10.642 20.9351C10.2594 21.2689 9.6919 21.2689 9.30931 20.9351C7.17634 19.5349 5.3043 17.7671 3.77882 15.7125C2.41919 13.9208 1.64724 11.7462 1.57043 9.49139L1.57043 9.46259Z" stroke="#181725" stroke-width="2" stroke-linecap="round" stroke-linejoin="round"/>
<path fill-rule="evenodd" clip-rule="evenodd" d="M9.97573 11.9873C11.2689 11.9873 12.3172 10.93 12.3172 9.62572C12.3172 8.32147 11.2689 7.26416 9.97573 7.26416C8.68255 7.26416 7.63422 8.32147 7.63422 9.62572C7.63422 10.93 8.68255 11.9873 9.97573 11.9873Z" stroke="#181725" stroke-width="2" stroke-linecap="round" stroke-linejoin="round"/>
</svg>
