<svg width="24" height="23" viewBox="0 0 24 23" fill="none" xmlns="http://www.w3.org/2000/svg">
<path d="M17.5232 4.12069C17.8082 3.84688 17.8082 3.40296 17.5232 3.12919L15.3475 1.03935C15.0624 0.765538 14.6002 0.765573 14.3152 1.03935L0.98897 13.8397C0.703949 14.1135 0.703912 14.5574 0.98897 14.8312L3.16468 16.921C3.44973 17.1949 3.91189 17.1948 4.19691 16.921C4.81199 16.3302 5.81315 16.3302 6.42825 16.921C7.04335 17.5119 7.04335 18.4735 6.42825 19.0643C6.14323 19.3381 6.14319 19.782 6.42825 20.0558L8.60396 22.1457C8.88901 22.4195 9.35117 22.4194 9.63619 22.1457L22.9624 9.34532C23.2475 9.07151 23.2475 8.62759 22.9625 8.35382L20.7867 6.26397C20.5017 5.99016 20.0395 5.9902 19.7545 6.26397C19.1394 6.85477 18.1383 6.8548 17.5232 6.26397C16.9081 5.67315 16.9081 4.71152 17.5232 4.12069ZM16.4909 7.2555C17.4976 8.22249 19.0404 8.36735 20.2079 7.691L21.4141 8.84957L13.0636 16.8705L11.9479 15.7989C11.6629 15.5251 11.2007 15.5251 10.9157 15.7989C10.6306 16.0727 10.6306 16.5166 10.9157 16.7904L12.0313 17.862L9.12008 20.6584L7.9139 19.4998C8.61802 18.3784 8.46721 16.8965 7.46049 15.9295C6.45377 14.9626 4.91104 14.8177 3.74349 15.494L2.53733 14.3354L5.44856 11.5391L6.56423 12.6107C6.84929 12.8846 7.31145 12.8845 7.59647 12.6107C7.88149 12.337 7.88149 11.893 7.59647 11.6192L6.4808 10.5476L14.8313 2.52663L16.0375 3.6852C15.3334 4.80668 15.4842 6.28851 16.4909 7.2555Z" fill="#181725" stroke="#181725" stroke-width="0.3"/>
<path d="M8.19588 13.1865C7.91089 13.4602 7.91093 13.9041 8.19588 14.1778L9.28342 15.2224C9.56841 15.4961 10.0305 15.4961 10.3154 15.2224C10.6004 14.9487 10.6004 14.5048 10.3154 14.2311L9.22789 13.1865C9.22788 13.1865 9.22788 13.1865 9.22787 13.1865C8.94293 12.9127 8.48085 12.9128 8.19588 13.1865Z" fill="#181725" stroke="#181725" stroke-width="0.3"/>
</svg>
