<svg width="25" height="25" viewBox="0 0 25 25" fill="none" xmlns="http://www.w3.org/2000/svg">
<path d="M9.63098 9.58781C10.161 10.0628 10.863 10.3518 11.631 10.3518H13.631C14.3691 10.3528 15.0815 10.0807 15.631 9.58781H9.63098ZM9.63098 9.58781C9.08152 10.0807 8.36912 10.3528 7.63098 10.3518L9.63098 9.58781ZM8.68098 4.35181V4.30181H8.63098H5.63098C5.35251 4.30181 5.08544 4.41243 4.88852 4.60934C4.69161 4.80626 4.58098 5.07333 4.58098 5.35181V7.35181C4.58098 7.63028 4.69161 7.89736 4.88852 8.09427C5.08544 8.29118 5.35251 8.40181 5.63098 8.40181H7.63098C7.90946 8.40181 8.17653 8.29118 8.37345 8.09427C8.57036 7.89736 8.68098 7.63028 8.68098 7.35181V4.35181ZM5.64098 10.3018H5.59098V10.3518V20.3168V20.3668H5.64098H7.63098H7.68098V20.3168V15.3518C7.68098 14.8346 7.88643 14.3386 8.25213 13.9729C8.61782 13.6073 9.11381 13.4018 9.63098 13.4018H11.631C12.1482 13.4018 12.6441 13.6073 13.0098 13.9729C13.3755 14.3386 13.581 14.8346 13.581 15.3518V20.3168V20.3668H13.631H19.644H19.694V20.3168V10.3518V10.3018H19.644H17.631C16.8757 10.3018 16.1855 10.0177 15.6644 9.55057L15.631 9.52065L15.5976 9.55059C15.0573 10.0352 14.3568 10.3028 13.6311 10.3018H13.631H11.631C10.8757 10.3018 10.1855 10.0177 9.66435 9.55057L9.63097 9.52065L9.5976 9.55059C9.05733 10.0352 8.35684 10.3028 7.63105 10.3018H7.63098H5.64098ZM3.63915 9.52893C3.34271 9.25816 3.10468 8.92947 2.93988 8.56299C2.76866 8.18222 2.6804 7.76938 2.68098 7.35188V7.35181V5.35181C2.68098 4.56942 2.99179 3.81907 3.54502 3.26584C4.09825 2.71261 4.8486 2.40181 5.63098 2.40181H19.631C20.4134 2.40181 21.1637 2.71261 21.717 3.26584C22.2702 3.81907 22.581 4.56942 22.581 5.35181V7.35181C22.581 8.21914 22.2074 8.99984 21.6104 9.53972L21.594 9.55461V9.57681V20.3168C21.594 20.834 21.3885 21.33 21.0228 21.6957C20.6571 22.0614 20.1612 22.2668 19.644 22.2668H12.004V22.2659L11.9947 22.2677C11.8748 22.2904 11.753 22.3018 11.631 22.3018H9.63098C9.50896 22.3018 9.38719 22.2904 9.26727 22.2677L9.26744 22.2668H9.25798H5.64198C5.12481 22.2668 4.62882 22.0614 4.26313 21.6957C3.89743 21.33 3.69198 20.834 3.69198 20.3168V9.59681V9.47611L3.63915 9.52893ZM11.681 15.3518V15.3018H11.631H9.63098H9.58098V15.3518V20.3168V20.3668H9.63098H11.631V20.3178H11.681V20.3168V20.2668V15.3518ZM14.681 4.35181V4.30181H14.631H10.631H10.581V4.35181V7.35181C10.581 7.63028 10.6916 7.89736 10.8885 8.09427C11.0854 8.29118 11.3525 8.40181 11.631 8.40181H13.631C13.9095 8.40181 14.1765 8.29118 14.3734 8.09427C14.5704 7.89736 14.681 7.63028 14.681 7.35181V4.35181ZM16.631 4.30181H16.581V4.35181V7.35181C16.581 7.63028 16.6916 7.89736 16.8885 8.09427C17.0854 8.29118 17.3525 8.40181 17.631 8.40181H19.631C19.9095 8.40181 20.1765 8.29118 20.3734 8.09427C20.5704 7.89736 20.681 7.63028 20.681 7.35181V5.35181C20.681 5.07333 20.5704 4.80626 20.3734 4.60934C20.1765 4.41243 19.9095 4.30181 19.631 4.30181H16.631ZM16.631 13.4018H17.631C17.8829 13.4018 18.1246 13.5019 18.3027 13.6801C18.4809 13.8582 18.581 14.0999 18.581 14.3518V17.3518C18.581 17.6038 18.4809 17.8454 18.3027 18.0236C18.1246 18.2017 17.8829 18.3018 17.631 18.3018H16.631C16.379 18.3018 16.1374 18.2017 15.9592 18.0236C15.7811 17.8454 15.681 17.6038 15.681 17.3518V14.3518C15.681 14.0999 15.7811 13.8582 15.9592 13.6801C16.1374 13.5019 16.379 13.4018 16.631 13.4018Z" fill="#030303" stroke="white" stroke-width="0.1"/>
</svg>
